<?xml version="1.0" standalone="no"?>
<!DOCTYPE svg PUBLIC "-//W3C//DTD SVG 20010904//EN"
 "http://www.w3.org/TR/2001/REC-SVG-20010904/DTD/svg10.dtd">
<svg version="1.0" xmlns="http://www.w3.org/2000/svg"
 width="597.000000pt" height="122.000000pt" viewBox="0 0 597.000000 122.000000"
 preserveAspectRatio="xMidYMid meet">

<g transform="translate(0.000000,122.000000) scale(0.100000,-0.100000)"
fill="#000000" stroke="none">
<path d="M0 610 l0 -610 2985 0 2985 0 0 610 0 610 -382 -3 c-352 -2 -387 -4
-430 -22 l-46 -19 -54 22 -53 22 -2503 0 -2502 0 0 -610z m1474 -14 c163 -263
296 -480 296 -482 0 -2 -62 -4 -139 -4 l-138 0 -227 370 c-124 203 -226 372
-226 375 0 14 130 229 135 223 2 -1 136 -218 299 -482z m703 14 c23 -96 42
-181 43 -188 0 -9 -11 -12 -37 -10 -34 3 -38 6 -46 41 l-9 37 -63 0 -63 0 -7
-40 c-7 -39 -8 -40 -47 -40 -33 0 -38 3 -34 18 3 9 24 95 47 190 l41 173 66
-3 66 -3 43 -175z m353 -10 l0 -190 -35 0 c-29 0 -35 4 -35 22 l0 21 -24 -22
c-31 -29 -98 -31 -135 -4 -61 46 -66 166 -10 223 39 39 109 43 146 8 l23 -21
0 76 0 77 35 0 35 0 0 -190z m320 0 l0 -190 -35 0 c-28 0 -35 4 -35 20 l0 20
-20 -20 c-19 -19 -40 -24 -85 -21 -66 6 -100 59 -93 151 4 55 8 66 36 91 41
36 110 41 142 9 l20 -20 0 68 c0 38 3 72 7 75 3 4 19 7 35 7 l28 0 0 -190z
m1544 180 c55 -12 81 -41 81 -91 0 -33 -6 -46 -28 -65 l-28 -24 28 -24 c39
-34 39 -95 0 -133 -26 -27 -33 -28 -137 -31 l-110 -4 0 36 c0 29 4 36 20 36
19 0 20 7 20 116 0 107 -1 116 -20 121 -15 4 -20 14 -20 39 l0 34 78 0 c42 0
95 -5 116 -10z m886 -95 c0 -58 4 -105 9 -105 5 0 19 15 30 33 32 52 55 69 91
65 l31 -3 -40 -58 c-23 -32 -41 -63 -41 -69 0 -6 17 -34 38 -62 59 -78 58 -76
13 -76 -36 0 -43 5 -76 50 -20 28 -41 50 -46 50 -5 0 -9 -22 -9 -50 l0 -50
-35 0 -35 0 0 183 c0 101 3 187 7 190 3 4 19 7 35 7 l28 0 0 -105z m-4217 -20
l68 -115 -133 -217 -133 -218 -142 -3 -141 -3 201 335 c111 185 204 335 207
335 3 0 36 -51 73 -114z m1957 -7 l0 -22 20 22 c29 30 89 30 117 0 11 -13 23
-38 26 -55 6 -32 6 -33 -31 -33 -29 0 -39 5 -47 23 -14 31 -56 30 -72 -3 -7
-14 -13 -44 -13 -67 0 -41 1 -43 30 -43 28 0 30 -3 30 -35 l0 -35 -90 0 -90 0
0 35 c0 31 3 35 25 35 24 0 25 2 25 65 0 58 -2 65 -20 65 -16 0 -20 7 -20 35
l0 35 55 0 c50 0 55 -2 55 -22z m421 5 c34 -20 59 -68 59 -112 l0 -31 -95 0
c-52 0 -95 -3 -95 -7 0 -3 7 -15 17 -25 20 -22 51 -23 81 -3 19 14 24 14 47
-1 31 -21 31 -28 -1 -53 -20 -16 -41 -21 -85 -21 -50 0 -63 4 -89 28 -68 60
-57 186 19 227 36 20 107 18 142 -2z m323 -4 c33 -26 33 -43 0 -57 -20 -10
-28 -9 -40 3 -22 21 -66 20 -62 -2 2 -11 21 -20 56 -29 62 -13 79 -27 88 -70
17 -86 -129 -131 -202 -63 -31 29 -30 47 2 60 22 8 30 6 46 -11 23 -25 83 -25
83 0 0 14 -20 23 -78 35 -41 8 -67 39 -67 79 0 48 37 76 100 76 33 0 55 -6 74
-21z m330 -4 c33 -31 33 -41 -3 -53 -23 -8 -32 -7 -42 4 -15 18 -64 14 -64 -5
0 -9 19 -19 53 -26 66 -15 92 -38 92 -80 0 -61 -54 -95 -137 -87 -31 3 -93 50
-93 70 0 6 14 15 32 21 27 10 33 8 45 -9 19 -28 83 -28 83 -1 0 14 -13 22 -57
32 -91 22 -119 85 -61 139 33 30 116 28 152 -5z m646 9 c39 -24 60 -65 60
-119 0 -87 -49 -137 -136 -137 -89 0 -141 60 -132 152 5 46 11 59 42 87 31 28
43 33 87 33 29 0 63 -7 79 -16z m343 -17 c62 -58 60 -158 -4 -211 -55 -47
-176 -28 -208 32 -17 33 -21 95 -8 132 18 50 68 80 133 80 46 0 57 -4 87 -33z"/>
<path d="M2045 668 c-10 -46 -20 -89 -22 -95 -4 -9 8 -13 41 -13 25 0 46 4 46
9 0 15 -39 173 -43 177 -2 3 -12 -33 -22 -78z"/>
<path d="M2345 595 c-14 -13 -25 -36 -25 -50 0 -31 41 -75 70 -75 29 0 70 44
70 75 0 31 -41 75 -70 75 -11 0 -32 -11 -45 -25z"/>
<path d="M2671 601 c-44 -44 -15 -131 44 -131 53 0 86 78 53 123 -22 28 -73
32 -97 8z"/>
<path d="M4310 675 l0 -48 41 6 c39 5 59 19 59 42 0 23 -20 37 -59 42 l-41 6
0 -48z"/>
<path d="M4310 520 c0 -39 1 -40 34 -40 19 0 42 7 50 16 33 33 11 64 -46 64
-38 0 -38 0 -38 -40z"/>
<path d="M3328 609 c-33 -19 -18 -29 44 -29 60 0 61 0 43 20 -19 22 -59 26
-87 9z"/>
<path d="M4620 600 c-42 -42 -13 -130 43 -130 43 0 67 27 67 75 0 34 -5 47
-22 59 -31 22 -64 20 -88 -4z"/>
<path d="M4945 595 c-14 -13 -25 -36 -25 -50 0 -32 41 -75 73 -75 61 0 90 91
41 129 -35 27 -59 26 -89 -4z"/>
</g>
</svg>
